<svg class="main-svg" xmlns="http://www.w3.org/2000/svg" xmlns:xlink="http://www.w3.org/1999/xlink" width="1250" height="700" style="" viewBox="0 0 1250 700"><rect x="0" y="0" width="1250" height="700" style="fill: rgb(255, 255, 255); fill-opacity: 1;"/><defs id="defs-74769b"><g class="clips"><clipPath id="clip74769bxyplot" class="plotclip"><rect width="1090" height="520"/></clipPath><clipPath id="clip74769bxy2plot" class="plotclip"><rect width="1090" height="520"/></clipPath><clipPath class="axesclip" id="clip74769bx"><rect x="80" y="0" width="1090" height="700"/></clipPath><clipPath class="axesclip" id="clip74769by"><rect x="0" y="100" width="1250" height="520"/></clipPath><clipPath class="axesclip" id="clip74769bxy"><rect x="80" y="100" width="1090" height="520"/></clipPath><clipPath class="axesclip" id="clip74769by2"><rect x="0" y="100" width="1250" height="520"/></clipPath><clipPath class="axesclip" id="clip74769bxy2"><rect x="80" y="100" width="1090" height="520"/></clipPath></g><g class="gradients"/><g class="patterns"/></defs><g class="bglayer"/><g class="layer-below"><g class="imagelayer"/><g class="shapelayer"/></g><g class="cartesianlayer"><g class="subplot xy"><g class="layer-subplot"><g class="shapelayer"/><g class="imagelayer"/></g><g class="minor-gridlayer"><g class="x"/><g class="y"/><g class="y2"/></g><g class="gridlayer"><g class="x"/><g class="y"/><g class="y2"/></g><g class="zerolinelayer"><path class="yzl zl crisp" transform="translate(0,594)" d="M80,0h1090" style="stroke: rgb(255, 255, 255); stroke-opacity: 1; stroke-width: 2px;"/><path class="y2zl zl crisp" transform="translate(0,594)" d="M80,0h1090" style="stroke: rgb(255, 255, 255); stroke-opacity: 1; stroke-width: 2px;"/></g><path class="xlines-below"/><path class="ylines-below"/><g class="overlines-below"><path class="xy2-x"/><path class="xy2-y"/></g><g class="xaxislayer-below"/><g class="yaxislayer-below"/><g class="overaxes-below"><g class="xy2-x"/><g class="xy2-y"/></g><g class="plot" transform="translate(80,100)" clip-path="url(#clip74769bxyplot)"><g class="scatterlayer mlayer"><g class="trace scatter trace548850" style="stroke-miterlimit: 2;"><g class="fills"><g><path class="js-fill" d="M0,75.81L99.09,73.39L198.18,67.44L297.27,71.92L396.36,115.69L495.45,190.25L594.55,347.31L693.64,414.34L792.73,446.54L891.82,334.68L990.91,184.29L1090,97.59L1090,123.25L990.91,238.59L891.82,435.13L792.73,484.23L693.64,475.79L594.55,405.39L495.45,291.44L396.36,156.52L297.27,89.88L198.18,86.77L0,93.65Z" style="fill: rgb(177, 255, 255); fill-opacity: 1; stroke-width: 0;"/></g></g><g class="errorbars"/><g class="lines"><path class="js-line" d="M0,93.65L198.18,86.77L297.27,89.88L396.36,156.52L495.45,291.44L594.55,405.39L693.64,475.79L792.73,484.23L891.82,435.13L990.91,238.59L1090,123.25" style="vector-effect: non-scaling-stroke; fill: none; stroke: rgb(177, 255, 255); stroke-opacity: 1; stroke-width: 1px; opacity: 1;"/></g><g class="points"/><g class="text"/></g><g class="trace scatter tracece1890" style="stroke-miterlimit: 2;"><g class="fills"/><g class="errorbars"/><g class="lines"><path class="js-line" d="M0,75.81L99.09,73.39L198.18,67.44L297.27,71.92L396.36,115.69L495.45,190.25L594.55,347.31L693.64,414.34L792.73,446.54L891.82,334.68L990.91,184.29L1090,97.59" style="vector-effect: non-scaling-stroke; fill: none; stroke: rgb(177, 255, 255); stroke-opacity: 1; stroke-width: 1px; opacity: 1;"/></g><g class="points"/><g class="text"/></g><g class="trace scatter traced2fb69" style="stroke-miterlimit: 2;"><g class="fills"><g><path class="js-fill" d="M0,76.29L99.09,69.51L198.18,72.3L297.27,75.53L396.36,118.7L495.45,209.88L594.55,372.39L693.64,460.76L792.73,453.79L891.82,379.43L990.91,236.38L1090,89.3L1090,118.74L990.91,329.63L891.82,441.29L792.73,485.96L693.64,487.73L594.55,432.75L495.45,286.78L396.36,164.4L297.27,89.12L198.18,84.84L99.09,80.13L0,83.42Z" style="fill: rgb(0, 235, 235); fill-opacity: 1; stroke-width: 0;"/></g></g><g class="errorbars"/><g class="lines"><path class="js-line" d="M0,83.42L99.09,80.13L198.18,84.84L297.27,89.12L396.36,164.4L495.45,286.78L594.55,432.75L693.64,487.73L792.73,485.96L891.82,441.29L990.91,329.63L1090,118.74" style="vector-effect: non-scaling-stroke; fill: none; stroke: rgb(0, 235, 235); stroke-opacity: 1; stroke-width: 1px; opacity: 1;"/></g><g class="points"/><g class="text"/></g><g class="trace scatter trace7b4d15" style="stroke-miterlimit: 2;"><g class="fills"/><g class="errorbars"/><g class="lines"><path class="js-line" d="M0,76.29L99.09,69.51L198.18,72.3L297.27,75.53L396.36,118.7L495.45,209.88L594.55,372.39L693.64,460.76L792.73,453.79L891.82,379.43L990.91,236.38L1090,89.3" style="vector-effect: non-scaling-stroke; fill: none; stroke: rgb(0, 235, 235); stroke-opacity: 1; stroke-width: 1px; opacity: 1;"/></g><g class="points"/><g class="text"/></g><g class="trace scatter trace2b9a32" style="stroke-miterlimit: 2;"><g class="fills"><g><path class="js-fill" d="M0,47.98L99.09,40.63L198.18,49.03L297.27,34.47L396.36,125.27L495.45,302.06L594.55,390.07L693.64,466.27L792.73,485.54L891.82,443.8L990.91,245.14L1090,83.22L1090,127.69L990.91,327.62L891.82,472.29L792.73,493.3L693.64,492L594.55,465.62L495.45,328.96L396.36,167.68L297.27,95.68L198.18,80.09L99.09,89.07L0,96.31Z" style="fill: rgb(0, 196, 196); fill-opacity: 1; stroke-width: 0;"/></g></g><g class="errorbars"/><g class="lines"><path class="js-line" d="M0,96.31L99.09,89.07L198.18,80.09L297.27,95.68L396.36,167.68L495.45,328.96L594.55,465.62L693.64,492L792.73,493.3L891.82,472.29L990.91,327.62L1090,127.69" style="vector-effect: non-scaling-stroke; fill: none; stroke: rgb(0, 196, 196); stroke-opacity: 1; stroke-width: 1px; opacity: 1;"/></g><g class="points"/><g class="text"/></g><g class="trace scatter tracee4484d" style="stroke-miterlimit: 2;"><g class="fills"/><g class="errorbars"/><g class="lines"><path class="js-line" d="M0,47.98L99.09,40.63L198.18,49.03L297.27,34.47L396.36,125.27L495.45,302.06L594.55,390.07L693.64,466.27L792.73,485.54L891.82,443.8L990.91,245.14L1090,83.22" style="vector-effect: non-scaling-stroke; fill: none; stroke: rgb(0, 196, 196); stroke-opacity: 1; stroke-width: 1px; opacity: 1;"/></g><g class="points"/><g class="text"/></g><g class="trace scatter trace75b786" style="stroke-miterlimit: 2;"><g class="fills"><g><path class="js-fill" d="M0,38.1L198.18,26L297.27,38.46L396.36,132.44L495.45,313.01L594.55,449.57L693.64,491.74L792.73,490.91L891.82,465.05L990.91,311.3L1090,88.15L1090,147.58L990.91,350.86L891.82,481.11L792.73,492.24L693.64,493.59L594.55,469.55L495.45,376.23L396.36,246.84L297.27,79.41L198.18,47.46L99.09,50.56L0,61.29Z" style="fill: rgb(0, 157, 157); fill-opacity: 1; stroke-width: 0;"/></g></g><g class="errorbars"/><g class="lines"><path class="js-line" d="M0,61.29L99.09,50.56L198.18,47.46L297.27,79.41L396.36,246.84L495.45,376.23L594.55,469.55L693.64,493.59L792.73,492.24L891.82,481.11L990.91,350.86L1090,147.58" style="vector-effect: non-scaling-stroke; fill: none; stroke: rgb(0, 157, 157); stroke-opacity: 1; stroke-width: 1px; opacity: 1;"/></g><g class="points"/><g class="text"/></g><g class="trace scatter tracef119e0" style="stroke-miterlimit: 2;"><g class="fills"/><g class="errorbars"/><g class="lines"><path class="js-line" d="M0,38.1L198.18,26L297.27,38.46L396.36,132.44L495.45,313.01L594.55,449.57L693.64,491.74L792.73,490.91L891.82,465.05L990.91,311.3L1090,88.15" style="vector-effect: non-scaling-stroke; fill: none; stroke: rgb(0, 157, 157); stroke-opacity: 1; stroke-width: 1px; opacity: 1;"/></g><g class="points"/><g class="text"/></g><g class="trace scatter traceaddb7e" style="stroke-miterlimit: 2; opacity: 1;"><g class="fills"/><g class="errorbars"/><g class="lines"><path class="js-line" d="M0,52.79L99.09,36.98L198.18,37.31L297.27,32.41L396.36,100.8L495.45,277.92L594.55,457.75L693.64,493.92L792.73,494L891.82,493.04L990.91,377.18L1090,110.16" style="vector-effect: non-scaling-stroke; fill: none; stroke: rgb(0, 118, 118); stroke-opacity: 1; stroke-width: 2px; opacity: 1;"/></g><g class="points"/><g class="text"/></g></g></g><g class="overplot"><g class="xy2" transform="translate(80,100)" clip-path="url(#clip74769bxy2plot)"><g class="scatterlayer mlayer"><g class="trace scatter trace69249b" style="stroke-miterlimit: 2;"><g class="fills"><g><path class="js-fill" d="M0,492.63L198.18,491.91L297.27,487.53L396.36,474.2L495.45,377.36L594.55,301.18L693.64,383.84L792.73,335.17L891.82,340.5L990.91,468.21L1090,491.36L1090,492.31L990.91,487L891.82,404.16L792.73,419.25L693.64,407.55L594.55,378.35L495.45,418.06L396.36,479.87L297.27,492.6L198.18,493.41L0,493.07Z" style="fill: rgb(255, 157, 255); fill-opacity: 1; stroke-width: 0;"/></g></g><g class="errorbars"/><g class="lines"><path class="js-line" d="M0,493.07L198.18,493.41L297.27,492.6L396.36,479.87L495.45,418.06L594.55,378.35L693.64,407.55L792.73,419.25L891.82,404.16L990.91,487L1090,492.31" style="vector-effect: non-scaling-stroke; fill: none; stroke: rgb(255, 157, 255); stroke-opacity: 1; stroke-width: 1px; opacity: 1;"/></g><g class="points"/><g class="text"/></g><g class="trace scatter trace00a7e2" style="stroke-miterlimit: 2;"><g class="fills"/><g class="errorbars"/><g class="lines"><path class="js-line" d="M0,492.63L198.18,491.91L297.27,487.53L396.36,474.2L495.45,377.36L594.55,301.18L693.64,383.84L792.73,335.17L891.82,340.5L990.91,468.21L1090,491.36" style="vector-effect: non-scaling-stroke; fill: none; stroke: rgb(255, 157, 255); stroke-opacity: 1; stroke-width: 1px; opacity: 1;"/></g><g class="points"/><g class="text"/></g><g class="trace scatter traced25ad0" style="stroke-miterlimit: 2;"><g class="fills"><g><path class="js-fill" d="M0,492.01L99.09,492.71L198.18,492.11L297.27,489.62L396.36,448.36L495.45,364.09L594.55,248.9L693.64,412.94L792.73,343.55L891.82,315.39L990.91,460.32L1090,488.6L1090,490.81L990.91,477.19L891.82,412.32L792.73,412.89L693.64,436.9L594.55,372.16L495.45,432.13L396.36,473.7L297.27,490.85L198.18,493.17L99.09,493.32L0,492.64Z" style="fill: rgb(255, 208, 177); fill-opacity: 1; stroke-width: 0;"/></g></g><g class="errorbars"/><g class="lines"><path class="js-line" d="M0,492.64L99.09,493.32L198.18,493.17L297.27,490.85L396.36,473.7L495.45,432.13L594.55,372.16L693.64,436.9L792.73,412.89L891.82,412.32L990.91,477.19L1090,490.81" style="vector-effect: non-scaling-stroke; fill: none; stroke: rgb(255, 208, 177); stroke-opacity: 1; stroke-width: 1px; opacity: 1;"/></g><g class="points"/><g class="text"/></g><g class="trace scatter tracead2fdd" style="stroke-miterlimit: 2;"><g class="fills"/><g class="errorbars"/><g class="lines"><path class="js-line" d="M0,492.01L99.09,492.71L198.18,492.11L297.27,489.62L396.36,448.36L495.45,364.09L594.55,248.9L693.64,412.94L792.73,343.55L891.82,315.39L990.91,460.32L1090,488.6" style="vector-effect: non-scaling-stroke; fill: none; stroke: rgb(255, 208, 177); stroke-opacity: 1; stroke-width: 1px; opacity: 1;"/></g><g class="points"/><g class="text"/></g><g class="trace scatter tracef5658a" style="stroke-miterlimit: 2;"><g class="fills"><g><path class="js-fill" d="M0,491.78L99.09,492.51L198.18,491.42L297.27,487.46L396.36,458.18L495.45,347.27L594.55,267.45L693.64,399.85L792.73,348.53L891.82,315.29L990.91,434.46L1090,488.7L1090,491.79L990.91,464.79L891.82,369.87L792.73,409.51L693.64,426.45L594.55,397.7L495.45,426.34L396.36,472.63L297.27,492.51L198.18,493.97L0,493.85Z" style="fill: rgb(255, 196, 255); fill-opacity: 1; stroke-width: 0;"/></g></g><g class="errorbars"/><g class="lines"><path class="js-line" d="M0,493.85L198.18,493.97L297.27,492.51L396.36,472.63L495.45,426.34L594.55,397.7L693.64,426.45L792.73,409.51L891.82,369.87L990.91,464.79L1090,491.79" style="vector-effect: non-scaling-stroke; fill: none; stroke: rgb(255, 196, 255); stroke-opacity: 1; stroke-width: 1px; opacity: 1;"/></g><g class="points"/><g class="text"/></g><g class="trace scatter trace00cfc4" style="stroke-miterlimit: 2;"><g class="fills"/><g class="errorbars"/><g class="lines"><path class="js-line" d="M0,491.78L99.09,492.51L198.18,491.42L297.27,487.46L396.36,458.18L495.45,347.27L594.55,267.45L693.64,399.85L792.73,348.53L891.82,315.29L990.91,434.46L1090,488.7" style="vector-effect: non-scaling-stroke; fill: none; stroke: rgb(255, 196, 255); stroke-opacity: 1; stroke-width: 1px; opacity: 1;"/></g><g class="points"/><g class="text"/></g><g class="trace scatter trace144823" style="stroke-miterlimit: 2;"><g class="fills"><g><path class="js-fill" d="M0,493.13L198.18,493.24L297.27,487.13L396.36,417.36L495.45,178.82L594.55,274.16L693.64,394.09L792.73,325.88L891.82,305.03L990.91,427.29L1090,487.14L1090,492.69L990.91,455.61L891.82,383.23L792.73,373.92L693.64,434.16L594.55,334.63L495.45,318.72L396.36,450.01L297.27,492.22L198.18,493.92L0,493.88Z" style="fill: rgb(255, 184, 137); fill-opacity: 1; stroke-width: 0;"/></g></g><g class="errorbars"/><g class="lines"><path class="js-line" d="M0,493.88L198.18,493.92L297.27,492.22L396.36,450.01L495.45,318.72L594.55,334.63L693.64,434.16L792.73,373.92L891.82,383.23L990.91,455.61L1090,492.69" style="vector-effect: non-scaling-stroke; fill: none; stroke: rgb(255, 184, 137); stroke-opacity: 1; stroke-width: 1px; opacity: 1;"/></g><g class="points"/><g class="text"/></g><g class="trace scatter traceb939df" style="stroke-miterlimit: 2;"><g class="fills"/><g class="errorbars"/><g class="lines"><path class="js-line" d="M0,493.13L198.18,493.24L297.27,487.13L396.36,417.36L495.45,178.82L594.55,274.16L693.64,394.09L792.73,325.88L891.82,305.03L990.91,427.29L1090,487.14" style="vector-effect: non-scaling-stroke; fill: none; stroke: rgb(255, 184, 137); stroke-opacity: 1; stroke-width: 1px; opacity: 1;"/></g><g class="points"/><g class="text"/></g><g class="trace scatter traceb9e9fc" style="stroke-miterlimit: 2; opacity: 1;"><g class="fills"/><g class="errorbars"/><g class="lines"><path class="js-line" d="M0,493.94L198.18,493.58L297.27,492.59L396.36,467.4L495.45,268.03L594.55,26L693.64,348.82L792.73,411.78L891.82,311.49L990.91,441.57L1090,487.26" style="vector-effect: non-scaling-stroke; fill: none; stroke: rgb(255, 149, 78); stroke-opacity: 1; stroke-width: 2px; opacity: 1;"/></g><g class="points"/><g class="text"/></g></g></g></g><path class="xlines-above crisp" d="M0,0" style="fill: none;"/><path class="ylines-above crisp" d="M0,0" style="fill: none;"/><g class="overlines-above"><path class="xy2-x crisp" d="M0,0" style="fill: none;"/><path class="xy2-y crisp" d="M0,0" style="fill: none;"/></g><g class="xaxislayer-above"><g class="xtick"><text text-anchor="middle" x="0" y="637" transform="translate(80,0)" style="font-family: 'Open Sans', verdana, arial, sans-serif; font-size: 16px; fill: rgb(42, 63, 95); fill-opacity: 1; white-space: pre; opacity: 1;">Jan</text></g><g class="xtick"><text text-anchor="middle" x="0" y="637" style="font-family: 'Open Sans', verdana, arial, sans-serif; font-size: 16px; fill: rgb(42, 63, 95); fill-opacity: 1; white-space: pre; opacity: 1;" transform="translate(179.09,0)">Feb</text></g><g class="xtick"><text text-anchor="middle" x="0" y="637" style="font-family: 'Open Sans', verdana, arial, sans-serif; font-size: 16px; fill: rgb(42, 63, 95); fill-opacity: 1; white-space: pre; opacity: 1;" transform="translate(278.18,0)">Mar</text></g><g class="xtick"><text text-anchor="middle" x="0" y="637" style="font-family: 'Open Sans', verdana, arial, sans-serif; font-size: 16px; fill: rgb(42, 63, 95); fill-opacity: 1; white-space: pre; opacity: 1;" transform="translate(377.27,0)">Apr</text></g><g class="xtick"><text text-anchor="middle" x="0" y="637" style="font-family: 'Open Sans', verdana, arial, sans-serif; font-size: 16px; fill: rgb(42, 63, 95); fill-opacity: 1; white-space: pre; opacity: 1;" transform="translate(476.36,0)">May</text></g><g class="xtick"><text text-anchor="middle" x="0" y="637" style="font-family: 'Open Sans', verdana, arial, sans-serif; font-size: 16px; fill: rgb(42, 63, 95); fill-opacity: 1; white-space: pre; opacity: 1;" transform="translate(575.45,0)">Jun</text></g><g class="xtick"><text text-anchor="middle" x="0" y="637" style="font-family: 'Open Sans', verdana, arial, sans-serif; font-size: 16px; fill: rgb(42, 63, 95); fill-opacity: 1; white-space: pre; opacity: 1;" transform="translate(674.55,0)">Jul</text></g><g class="xtick"><text text-anchor="middle" x="0" y="637" style="font-family: 'Open Sans', verdana, arial, sans-serif; font-size: 16px; fill: rgb(42, 63, 95); fill-opacity: 1; white-space: pre; opacity: 1;" transform="translate(773.64,0)">Aug</text></g><g class="xtick"><text text-anchor="middle" x="0" y="637" style="font-family: 'Open Sans', verdana, arial, sans-serif; font-size: 16px; fill: rgb(42, 63, 95); fill-opacity: 1; white-space: pre; opacity: 1;" transform="translate(872.73,0)">Sep</text></g><g class="xtick"><text text-anchor="middle" x="0" y="637" style="font-family: 'Open Sans', verdana, arial, sans-serif; font-size: 16px; fill: rgb(42, 63, 95); fill-opacity: 1; white-space: pre; opacity: 1;" transform="translate(971.82,0)">Oct</text></g><g class="xtick"><text text-anchor="middle" x="0" y="637" style="font-family: 'Open Sans', verdana, arial, sans-serif; font-size: 16px; fill: rgb(42, 63, 95); fill-opacity: 1; white-space: pre; opacity: 1;" transform="translate(1070.9099999999999,0)">Nov</text></g><g class="xtick"><text text-anchor="middle" x="0" y="637" style="font-family: 'Open Sans', verdana, arial, sans-serif; font-size: 16px; fill: rgb(42, 63, 95); fill-opacity: 1; white-space: pre; opacity: 1;" transform="translate(1170,0)">Dec</text></g></g><g class="yaxislayer-above"><g class="ytick"><text text-anchor="end" x="79" y="5.6" transform="translate(0,594)" style="font-family: 'Open Sans', verdana, arial, sans-serif; font-size: 16px; fill: rgb(42, 63, 95); fill-opacity: 1; white-space: pre; opacity: 1;">0</text></g><g class="ytick"><text text-anchor="end" x="79" y="5.6" style="font-family: 'Open Sans', verdana, arial, sans-serif; font-size: 16px; fill: rgb(42, 63, 95); fill-opacity: 1; white-space: pre; opacity: 1;" transform="translate(0,484.18)">0.05</text></g><g class="ytick"><text text-anchor="end" x="79" y="5.6" style="font-family: 'Open Sans', verdana, arial, sans-serif; font-size: 16px; fill: rgb(42, 63, 95); fill-opacity: 1; white-space: pre; opacity: 1;" transform="translate(0,374.37)">0.1</text></g><g class="ytick"><text text-anchor="end" x="79" y="5.6" style="font-family: 'Open Sans', verdana, arial, sans-serif; font-size: 16px; fill: rgb(42, 63, 95); fill-opacity: 1; white-space: pre; opacity: 1;" transform="translate(0,264.55)">0.15</text></g><g class="ytick"><text text-anchor="end" x="79" y="5.6" style="font-family: 'Open Sans', verdana, arial, sans-serif; font-size: 16px; fill: rgb(42, 63, 95); fill-opacity: 1; white-space: pre; opacity: 1;" transform="translate(0,154.73)">0.2</text></g></g><g class="overaxes-above"><g class="xy2-x"/><g class="xy2-y"><g class="y2tick"><text text-anchor="start" x="1171" y="5.6" transform="translate(0,594)" style="font-family: 'Open Sans', verdana, arial, sans-serif; font-size: 16px; fill: rgb(42, 63, 95); fill-opacity: 1; white-space: pre; opacity: 1;">0</text></g><g class="y2tick"><text text-anchor="start" x="1171" y="5.6" style="font-family: 'Open Sans', verdana, arial, sans-serif; font-size: 16px; fill: rgb(42, 63, 95); fill-opacity: 1; white-space: pre; opacity: 1;" transform="translate(0,498.86)">1</text></g><g class="y2tick"><text text-anchor="start" x="1171" y="5.6" style="font-family: 'Open Sans', verdana, arial, sans-serif; font-size: 16px; fill: rgb(42, 63, 95); fill-opacity: 1; white-space: pre; opacity: 1;" transform="translate(0,403.71)">2</text></g><g class="y2tick"><text text-anchor="start" x="1171" y="5.6" style="font-family: 'Open Sans', verdana, arial, sans-serif; font-size: 16px; fill: rgb(42, 63, 95); fill-opacity: 1; white-space: pre; opacity: 1;" transform="translate(0,308.56)">3</text></g><g class="y2tick"><text text-anchor="start" x="1171" y="5.6" style="font-family: 'Open Sans', verdana, arial, sans-serif; font-size: 16px; fill: rgb(42, 63, 95); fill-opacity: 1; white-space: pre; opacity: 1;" transform="translate(0,213.42000000000002)">4</text></g><g class="y2tick"><text text-anchor="start" x="1171" y="5.6" style="font-family: 'Open Sans', verdana, arial, sans-serif; font-size: 16px; fill: rgb(42, 63, 95); fill-opacity: 1; white-space: pre; opacity: 1;" transform="translate(0,118.27)">5</text></g></g></g></g><g class="subplot xy2"/></g><g class="polarlayer"/><g class="smithlayer"/><g class="ternarylayer"/><g class="geolayer"/><g class="funnelarealayer"/><g class="pielayer"/><g class="iciclelayer"/><g class="treemaplayer"/><g class="sunburstlayer"/><g class="glimages"/><defs id="topdefs-74769b"><g class="clips"/></defs><g class="layer-above"><g class="imagelayer"/><g class="shapelayer"/></g><g class="infolayer"><g class="g-gtitle"/><g class="g-xtitle"><text class="xtitle" x="625" y="666.7" text-anchor="middle" style="font-family: 'Open Sans', verdana, arial, sans-serif; font-size: 16px; fill: rgb(42, 63, 95); opacity: 1; font-weight: normal; white-space: pre;">Month</text></g><g class="g-ytitle"><text class="ytitle" transform="rotate(-90,16.456249999999997,360)" x="16.456249999999997" y="360" text-anchor="middle" style="font-family: 'Open Sans', verdana, arial, sans-serif; font-size: 16px; fill: rgb(42, 63, 95); opacity: 1; font-weight: normal; white-space: pre;">Average Sea Ice Extent</text></g><g class="g-y2title"><text class="y2title" transform="rotate(-90,1207.371875,360)" x="1207.371875" y="360" text-anchor="middle" style="font-family: 'Open Sans', verdana, arial, sans-serif; font-size: 16px; fill: rgb(42, 63, 95); opacity: 1; font-weight: normal; white-space: pre;">Average Water Temperature (°C)</text></g></g></svg>