<svg class="main-svg" xmlns="http://www.w3.org/2000/svg" xmlns:xlink="http://www.w3.org/1999/xlink" width="1250" height="700" style="" viewBox="0 0 1250 700"><rect x="0" y="0" width="1250" height="700" style="fill: rgb(0, 0, 0); fill-opacity: 0;"/><defs id="defs-c2bbe0"><g class="clips"><clipPath id="clipc2bbe0xyplot" class="plotclip"><rect width="1090" height="520"/></clipPath><clipPath class="axesclip" id="clipc2bbe0x"><rect x="80" y="0" width="1090" height="700"/></clipPath><clipPath class="axesclip" id="clipc2bbe0y"><rect x="0" y="100" width="1250" height="520"/></clipPath><clipPath class="axesclip" id="clipc2bbe0xy"><rect x="80" y="100" width="1090" height="520"/></clipPath></g><g class="gradients"/><g class="patterns"/></defs><g class="bglayer"><rect class="bg" x="80" y="100" width="1090" height="520" style="fill: rgb(0, 0, 0); fill-opacity: 0; stroke-width: 0;"/></g><g class="layer-below"><g class="imagelayer"/><g class="shapelayer"/></g><g class="cartesianlayer"><g class="subplot xy"><g class="layer-subplot"><g class="shapelayer"/><g class="imagelayer"/></g><g class="minor-gridlayer"><g class="x"/><g class="y"/></g><g class="gridlayer"><g class="x"/><g class="y"/></g><g class="zerolinelayer"/><path class="xlines-below"/><path class="ylines-below"/><g class="overlines-below"/><g class="xaxislayer-below"/><g class="yaxislayer-below"/><g class="overaxes-below"/><g class="plot" transform="translate(80,100)" clip-path="url(#clipc2bbe0xyplot)"><g class="scatterlayer mlayer"><g class="trace scatter trace2b4e1a" style="stroke-miterlimit: 2;"><g class="fills"><g><path class="js-fill" d="M0,75.81L99.09,73.39L198.18,67.44L297.27,71.92L396.36,115.69L495.45,190.25L594.55,347.31L693.64,414.34L792.73,446.54L891.82,334.68L990.91,184.29L1090,97.59L1090,123.25L990.91,238.59L891.82,435.13L792.73,484.23L693.64,475.79L594.55,405.39L495.45,291.44L396.36,156.52L297.27,89.88L198.18,86.77L0,93.65Z" style="fill: rgb(177, 255, 255); fill-opacity: 1; stroke-width: 0;"/></g></g><g class="errorbars"/><g class="lines"><path class="js-line" d="M0,93.65L198.18,86.77L297.27,89.88L396.36,156.52L495.45,291.44L594.55,405.39L693.64,475.79L792.73,484.23L891.82,435.13L990.91,238.59L1090,123.25" style="vector-effect: non-scaling-stroke; fill: none; stroke: rgb(177, 255, 255); stroke-opacity: 1; stroke-width: 1px; opacity: 1;"/></g><g class="points"/><g class="text"/></g><g class="trace scatter trace05e3e3" style="stroke-miterlimit: 2;"><g class="fills"/><g class="errorbars"/><g class="lines"><path class="js-line" d="M0,75.81L99.09,73.39L198.18,67.44L297.27,71.92L396.36,115.69L495.45,190.25L594.55,347.31L693.64,414.34L792.73,446.54L891.82,334.68L990.91,184.29L1090,97.59" style="vector-effect: non-scaling-stroke; fill: none; stroke: rgb(177, 255, 255); stroke-opacity: 1; stroke-width: 1px; opacity: 1;"/></g><g class="points"/><g class="text"/></g><g class="trace scatter traceea9e9e" style="stroke-miterlimit: 2;"><g class="fills"><g><path class="js-fill" d="M0,76.29L99.09,69.51L198.18,72.3L297.27,75.53L396.36,118.7L495.45,209.88L594.55,372.39L693.64,460.76L792.73,453.79L891.82,379.43L990.91,236.38L1090,89.3L1090,118.74L990.91,329.63L891.82,441.29L792.73,485.96L693.64,487.73L594.55,432.75L495.45,286.78L396.36,164.4L297.27,89.12L198.18,84.84L99.09,80.13L0,83.42Z" style="fill: rgb(0, 235, 235); fill-opacity: 1; stroke-width: 0;"/></g></g><g class="errorbars"/><g class="lines"><path class="js-line" d="M0,83.42L99.09,80.13L198.18,84.84L297.27,89.12L396.36,164.4L495.45,286.78L594.55,432.75L693.64,487.73L792.73,485.96L891.82,441.29L990.91,329.63L1090,118.74" style="vector-effect: non-scaling-stroke; fill: none; stroke: rgb(0, 235, 235); stroke-opacity: 1; stroke-width: 1px; opacity: 1;"/></g><g class="points"/><g class="text"/></g><g class="trace scatter trace055603" style="stroke-miterlimit: 2;"><g class="fills"/><g class="errorbars"/><g class="lines"><path class="js-line" d="M0,76.29L99.09,69.51L198.18,72.3L297.27,75.53L396.36,118.7L495.45,209.88L594.55,372.39L693.64,460.76L792.73,453.79L891.82,379.43L990.91,236.38L1090,89.3" style="vector-effect: non-scaling-stroke; fill: none; stroke: rgb(0, 235, 235); stroke-opacity: 1; stroke-width: 1px; opacity: 1;"/></g><g class="points"/><g class="text"/></g><g class="trace scatter trace8ca57b" style="stroke-miterlimit: 2;"><g class="fills"><g><path class="js-fill" d="M0,47.98L99.09,40.63L198.18,49.03L297.27,34.47L396.36,125.27L495.45,302.06L594.55,390.07L693.64,466.27L792.73,485.54L891.82,443.8L990.91,245.14L1090,83.22L1090,127.69L990.91,327.62L891.82,472.29L792.73,493.3L693.64,492L594.55,465.62L495.45,328.96L396.36,167.68L297.27,95.68L198.18,80.09L99.09,89.07L0,96.31Z" style="fill: rgb(0, 196, 196); fill-opacity: 1; stroke-width: 0;"/></g></g><g class="errorbars"/><g class="lines"><path class="js-line" d="M0,96.31L99.09,89.07L198.18,80.09L297.27,95.68L396.36,167.68L495.45,328.96L594.55,465.62L693.64,492L792.73,493.3L891.82,472.29L990.91,327.62L1090,127.69" style="vector-effect: non-scaling-stroke; fill: none; stroke: rgb(0, 196, 196); stroke-opacity: 1; stroke-width: 1px; opacity: 1;"/></g><g class="points"/><g class="text"/></g><g class="trace scatter trace04ec11" style="stroke-miterlimit: 2;"><g class="fills"/><g class="errorbars"/><g class="lines"><path class="js-line" d="M0,47.98L99.09,40.63L198.18,49.03L297.27,34.47L396.36,125.27L495.45,302.06L594.55,390.07L693.64,466.27L792.73,485.54L891.82,443.8L990.91,245.14L1090,83.22" style="vector-effect: non-scaling-stroke; fill: none; stroke: rgb(0, 196, 196); stroke-opacity: 1; stroke-width: 1px; opacity: 1;"/></g><g class="points"/><g class="text"/></g><g class="trace scatter tracebf4157" style="stroke-miterlimit: 2;"><g class="fills"><g><path class="js-fill" d="M0,38.1L198.18,26L297.27,38.46L396.36,132.44L495.45,313.01L594.55,449.57L693.64,491.74L792.73,490.91L891.82,465.05L990.91,311.3L1090,88.15L1090,147.58L990.91,350.86L891.82,481.11L792.73,492.24L693.64,493.59L594.55,469.55L495.45,376.23L396.36,246.84L297.27,79.41L198.18,47.46L99.09,50.56L0,61.29Z" style="fill: rgb(0, 157, 157); fill-opacity: 1; stroke-width: 0;"/></g></g><g class="errorbars"/><g class="lines"><path class="js-line" d="M0,61.29L99.09,50.56L198.18,47.46L297.27,79.41L396.36,246.84L495.45,376.23L594.55,469.55L693.64,493.59L792.73,492.24L891.82,481.11L990.91,350.86L1090,147.58" style="vector-effect: non-scaling-stroke; fill: none; stroke: rgb(0, 157, 157); stroke-opacity: 1; stroke-width: 1px; opacity: 1;"/></g><g class="points"/><g class="text"/></g><g class="trace scatter tracec81af0" style="stroke-miterlimit: 2;"><g class="fills"/><g class="errorbars"/><g class="lines"><path class="js-line" d="M0,38.1L198.18,26L297.27,38.46L396.36,132.44L495.45,313.01L594.55,449.57L693.64,491.74L792.73,490.91L891.82,465.05L990.91,311.3L1090,88.15" style="vector-effect: non-scaling-stroke; fill: none; stroke: rgb(0, 157, 157); stroke-opacity: 1; stroke-width: 1px; opacity: 1;"/></g><g class="points"/><g class="text"/></g><g class="trace scatter tracedd7e96" style="stroke-miterlimit: 2; opacity: 1;"><g class="fills"/><g class="errorbars"/><g class="lines"><path class="js-line" d="M0,52.79L99.09,36.98L198.18,37.31L297.27,32.41L396.36,100.8L495.45,277.92L594.55,457.75L693.64,493.92L792.73,494L891.82,493.04L990.91,377.18L1090,110.16" style="vector-effect: non-scaling-stroke; fill: none; stroke: rgb(0, 118, 118); stroke-opacity: 1; stroke-width: 2px; opacity: 1;"/></g><g class="points"/><g class="text"/></g><g class="trace scatter trace68be8a" style="stroke-miterlimit: 2; opacity: 1;"><g class="fills"/><g class="errorbars"/><g class="lines"/><g class="points"/><g class="text"/></g><g class="trace scatter trace211ca8" style="stroke-miterlimit: 2; opacity: 1;"><g class="fills"/><g class="errorbars"/><g class="lines"/><g class="points"/><g class="text"/></g><g class="trace scatter tracee6ed3f" style="stroke-miterlimit: 2; opacity: 1;"><g class="fills"/><g class="errorbars"/><g class="lines"/><g class="points"/><g class="text"/></g><g class="trace scatter tracee8129f" style="stroke-miterlimit: 2; opacity: 1;"><g class="fills"/><g class="errorbars"/><g class="lines"/><g class="points"/><g class="text"/></g><g class="trace scatter tracee93413" style="stroke-miterlimit: 2; opacity: 1;"><g class="fills"/><g class="errorbars"/><g class="lines"/><g class="points"/><g class="text"/></g><g class="trace scatter trace2c14af" style="stroke-miterlimit: 2; opacity: 1;"><g class="fills"/><g class="errorbars"/><g class="lines"/><g class="points"/><g class="text"/></g><g class="trace scatter trace73e601" style="stroke-miterlimit: 2; opacity: 1;"><g class="fills"/><g class="errorbars"/><g class="lines"/><g class="points"/><g class="text"/></g><g class="trace scatter trace28d69b" style="stroke-miterlimit: 2; opacity: 1;"><g class="fills"/><g class="errorbars"/><g class="lines"/><g class="points"/><g class="text"/></g></g></g><g class="overplot"/><path class="xlines-above crisp" d="M0,0" style="fill: none;"/><path class="ylines-above crisp" d="M0,0" style="fill: none;"/><g class="overlines-above"/><g class="xaxislayer-above"/><g class="yaxislayer-above"/><g class="overaxes-above"/></g></g><g class="polarlayer"/><g class="smithlayer"/><g class="ternarylayer"/><g class="geolayer"/><g class="funnelarealayer"/><g class="pielayer"/><g class="iciclelayer"/><g class="treemaplayer"/><g class="sunburstlayer"/><g class="glimages"/><defs id="topdefs-c2bbe0"><g class="clips"/></defs><g class="layer-above"><g class="imagelayer"/><g class="shapelayer"/></g><g class="infolayer"><g class="g-gtitle"/></g></svg>