<svg class="main-svg" xmlns="http://www.w3.org/2000/svg" xmlns:xlink="http://www.w3.org/1999/xlink" width="1250" height="700" style="" viewBox="0 0 1250 700"><rect x="0" y="0" width="1250" height="700" style="fill: rgb(255, 255, 255); fill-opacity: 1;"/><defs id="defs-695826"><g class="clips"><clipPath id="clip695826xyplot" class="plotclip"><rect width="906" height="520"/></clipPath><clipPath class="axesclip" id="clip695826x"><rect x="80" y="0" width="906" height="700"/></clipPath><clipPath class="axesclip" id="clip695826y"><rect x="0" y="100" width="1250" height="520"/></clipPath><clipPath class="axesclip" id="clip695826xy"><rect x="80" y="100" width="906" height="520"/></clipPath></g><g class="gradients"/><g class="patterns"/></defs><g class="bglayer"/><g class="layer-below"><g class="imagelayer"/><g class="shapelayer"/></g><g class="cartesianlayer"><g class="subplot xy"><g class="layer-subplot"><g class="shapelayer"/><g class="imagelayer"/></g><g class="minor-gridlayer"><g class="x"/><g class="y"/></g><g class="gridlayer"><g class="x"/><g class="y"/></g><g class="zerolinelayer"><path class="yzl zl crisp" transform="translate(0,594)" d="M80,0h906" style="stroke: rgb(255, 255, 255); stroke-opacity: 1; stroke-width: 2px;"/></g><path class="xlines-below"/><path class="ylines-below"/><g class="overlines-below"/><g class="xaxislayer-below"/><g class="yaxislayer-below"/><g class="overaxes-below"/><g class="plot" transform="translate(80,100)" clip-path="url(#clip695826xyplot)"><g class="scatterlayer mlayer"><g class="trace scatter tracef61df3" style="stroke-miterlimit: 2;"><g class="fills"><g><path class="js-fill" d="M0,75.81L82.36,73.39L164.73,67.44L247.09,71.92L329.45,115.69L411.82,190.25L494.18,347.31L576.55,414.34L658.91,446.54L741.27,334.68L823.64,184.29L906,97.59L906,123.25L823.64,238.59L741.27,435.13L658.91,484.23L576.55,475.79L494.18,405.39L411.82,291.44L329.45,156.52L247.09,89.88L164.73,86.77L0,93.65Z" style="fill: rgb(177, 255, 255); fill-opacity: 1; stroke-width: 0;"/></g></g><g class="errorbars"/><g class="lines"><path class="js-line" d="M0,93.65L164.73,86.77L247.09,89.88L329.45,156.52L411.82,291.44L494.18,405.39L576.55,475.79L658.91,484.23L741.27,435.13L823.64,238.59L906,123.25" style="vector-effect: non-scaling-stroke; fill: none; stroke: rgb(177, 255, 255); stroke-opacity: 1; stroke-width: 1px; opacity: 1;"/></g><g class="points"/><g class="text"/></g><g class="trace scatter trace03efe0" style="stroke-miterlimit: 2;"><g class="fills"/><g class="errorbars"/><g class="lines"><path class="js-line" d="M0,75.81L82.36,73.39L164.73,67.44L247.09,71.92L329.45,115.69L411.82,190.25L494.18,347.31L576.55,414.34L658.91,446.54L741.27,334.68L823.64,184.29L906,97.59" style="vector-effect: non-scaling-stroke; fill: none; stroke: rgb(177, 255, 255); stroke-opacity: 1; stroke-width: 1px; opacity: 1;"/></g><g class="points"/><g class="text"/></g><g class="trace scatter trace175e83" style="stroke-miterlimit: 2;"><g class="fills"><g><path class="js-fill" d="M0,76.29L82.36,69.51L164.73,72.3L247.09,75.53L329.45,118.7L411.82,209.88L494.18,372.39L576.55,460.76L658.91,453.79L741.27,379.43L823.64,236.38L906,89.3L906,118.74L823.64,329.63L741.27,441.29L658.91,485.96L576.55,487.73L494.18,432.75L411.82,286.78L329.45,164.4L247.09,89.12L164.73,84.84L82.36,80.13L0,83.42Z" style="fill: rgb(0, 235, 235); fill-opacity: 1; stroke-width: 0;"/></g></g><g class="errorbars"/><g class="lines"><path class="js-line" d="M0,83.42L82.36,80.13L164.73,84.84L247.09,89.12L329.45,164.4L411.82,286.78L494.18,432.75L576.55,487.73L658.91,485.96L741.27,441.29L823.64,329.63L906,118.74" style="vector-effect: non-scaling-stroke; fill: none; stroke: rgb(0, 235, 235); stroke-opacity: 1; stroke-width: 1px; opacity: 1;"/></g><g class="points"/><g class="text"/></g><g class="trace scatter tracec758f4" style="stroke-miterlimit: 2;"><g class="fills"/><g class="errorbars"/><g class="lines"><path class="js-line" d="M0,76.29L82.36,69.51L164.73,72.3L247.09,75.53L329.45,118.7L411.82,209.88L494.18,372.39L576.55,460.76L658.91,453.79L741.27,379.43L823.64,236.38L906,89.3" style="vector-effect: non-scaling-stroke; fill: none; stroke: rgb(0, 235, 235); stroke-opacity: 1; stroke-width: 1px; opacity: 1;"/></g><g class="points"/><g class="text"/></g><g class="trace scatter tracee10592" style="stroke-miterlimit: 2;"><g class="fills"><g><path class="js-fill" d="M0,47.98L82.36,40.63L164.73,49.03L247.09,34.47L329.45,125.27L411.82,302.06L494.18,390.07L576.55,466.27L658.91,485.54L741.27,443.8L823.64,245.14L906,83.22L906,127.69L823.64,327.62L741.27,472.29L658.91,493.3L576.55,492L494.18,465.62L411.82,328.96L329.45,167.68L247.09,95.68L164.73,80.09L82.36,89.07L0,96.31Z" style="fill: rgb(0, 196, 196); fill-opacity: 1; stroke-width: 0;"/></g></g><g class="errorbars"/><g class="lines"><path class="js-line" d="M0,96.31L82.36,89.07L164.73,80.09L247.09,95.68L329.45,167.68L411.82,328.96L494.18,465.62L576.55,492L658.91,493.3L741.27,472.29L823.64,327.62L906,127.69" style="vector-effect: non-scaling-stroke; fill: none; stroke: rgb(0, 196, 196); stroke-opacity: 1; stroke-width: 1px; opacity: 1;"/></g><g class="points"/><g class="text"/></g><g class="trace scatter trace6b6d81" style="stroke-miterlimit: 2;"><g class="fills"/><g class="errorbars"/><g class="lines"><path class="js-line" d="M0,47.98L82.36,40.63L164.73,49.03L247.09,34.47L329.45,125.27L411.82,302.06L494.18,390.07L576.55,466.27L658.91,485.54L741.27,443.8L823.64,245.14L906,83.22" style="vector-effect: non-scaling-stroke; fill: none; stroke: rgb(0, 196, 196); stroke-opacity: 1; stroke-width: 1px; opacity: 1;"/></g><g class="points"/><g class="text"/></g><g class="trace scatter trace32c96d" style="stroke-miterlimit: 2;"><g class="fills"><g><path class="js-fill" d="M0,38.1L164.73,26L247.09,38.46L329.45,132.44L411.82,313.01L494.18,449.57L576.55,491.74L658.91,490.91L741.27,465.05L823.64,311.3L906,88.15L906,147.58L823.64,350.86L741.27,481.11L658.91,492.24L576.55,493.59L494.18,469.55L411.82,376.23L329.45,246.84L247.09,79.41L164.73,47.46L82.36,50.56L0,61.29Z" style="fill: rgb(0, 157, 157); fill-opacity: 1; stroke-width: 0;"/></g></g><g class="errorbars"/><g class="lines"><path class="js-line" d="M0,61.29L82.36,50.56L164.73,47.46L247.09,79.41L329.45,246.84L411.82,376.23L494.18,469.55L576.55,493.59L658.91,492.24L741.27,481.11L823.64,350.86L906,147.58" style="vector-effect: non-scaling-stroke; fill: none; stroke: rgb(0, 157, 157); stroke-opacity: 1; stroke-width: 1px; opacity: 1;"/></g><g class="points"/><g class="text"/></g><g class="trace scatter trace42da1a" style="stroke-miterlimit: 2;"><g class="fills"/><g class="errorbars"/><g class="lines"><path class="js-line" d="M0,38.1L164.73,26L247.09,38.46L329.45,132.44L411.82,313.01L494.18,449.57L576.55,491.74L658.91,490.91L741.27,465.05L823.64,311.3L906,88.15" style="vector-effect: non-scaling-stroke; fill: none; stroke: rgb(0, 157, 157); stroke-opacity: 1; stroke-width: 1px; opacity: 1;"/></g><g class="points"/><g class="text"/></g><g class="trace scatter trace82bcee" style="stroke-miterlimit: 2; opacity: 1;"><g class="fills"/><g class="errorbars"/><g class="lines"><path class="js-line" d="M0,52.79L82.36,36.98L164.73,37.31L247.09,32.41L329.45,100.8L411.82,277.92L494.18,457.75L576.55,493.92L658.91,494L741.27,493.04L823.64,377.18L906,110.16" style="vector-effect: non-scaling-stroke; fill: none; stroke: rgb(0, 118, 118); stroke-opacity: 1; stroke-width: 2px; opacity: 1;"/></g><g class="points"/><g class="text"/></g><g class="trace scatter tracee14938" style="stroke-miterlimit: 2; opacity: 1;"><g class="fills"/><g class="errorbars"/><g class="lines"/><g class="points"/><g class="text"/></g><g class="trace scatter trace909025" style="stroke-miterlimit: 2; opacity: 1;"><g class="fills"/><g class="errorbars"/><g class="lines"/><g class="points"/><g class="text"/></g><g class="trace scatter trace2299d6" style="stroke-miterlimit: 2; opacity: 1;"><g class="fills"/><g class="errorbars"/><g class="lines"/><g class="points"/><g class="text"/></g><g class="trace scatter trace6903b2" style="stroke-miterlimit: 2; opacity: 1;"><g class="fills"/><g class="errorbars"/><g class="lines"/><g class="points"/><g class="text"/></g><g class="trace scatter trace31fe6f" style="stroke-miterlimit: 2; opacity: 1;"><g class="fills"/><g class="errorbars"/><g class="lines"/><g class="points"/><g class="text"/></g><g class="trace scatter trace921ba8" style="stroke-miterlimit: 2; opacity: 1;"><g class="fills"/><g class="errorbars"/><g class="lines"/><g class="points"/><g class="text"/></g><g class="trace scatter traceb8bcc4" style="stroke-miterlimit: 2; opacity: 1;"><g class="fills"/><g class="errorbars"/><g class="lines"/><g class="points"/><g class="text"/></g><g class="trace scatter trace9ee85e" style="stroke-miterlimit: 2; opacity: 1;"><g class="fills"/><g class="errorbars"/><g class="lines"/><g class="points"/><g class="text"/></g></g></g><g class="overplot"/><path class="xlines-above crisp" d="M0,0" style="fill: none;"/><path class="ylines-above crisp" d="M0,0" style="fill: none;"/><g class="overlines-above"/><g class="xaxislayer-above"><g class="xtick"><text text-anchor="middle" x="0" y="637" transform="translate(80,0)" style="font-family: 'Open Sans', verdana, arial, sans-serif; font-size: 16px; fill: rgb(42, 63, 95); fill-opacity: 1; white-space: pre; opacity: 1;">Jan</text></g><g class="xtick"><text text-anchor="middle" x="0" y="637" style="font-family: 'Open Sans', verdana, arial, sans-serif; font-size: 16px; fill: rgb(42, 63, 95); fill-opacity: 1; white-space: pre; opacity: 1;" transform="translate(162.36,0)">Feb</text></g><g class="xtick"><text text-anchor="middle" x="0" y="637" style="font-family: 'Open Sans', verdana, arial, sans-serif; font-size: 16px; fill: rgb(42, 63, 95); fill-opacity: 1; white-space: pre; opacity: 1;" transform="translate(244.73,0)">Mar</text></g><g class="xtick"><text text-anchor="middle" x="0" y="637" style="font-family: 'Open Sans', verdana, arial, sans-serif; font-size: 16px; fill: rgb(42, 63, 95); fill-opacity: 1; white-space: pre; opacity: 1;" transform="translate(327.09000000000003,0)">Apr</text></g><g class="xtick"><text text-anchor="middle" x="0" y="637" style="font-family: 'Open Sans', verdana, arial, sans-serif; font-size: 16px; fill: rgb(42, 63, 95); fill-opacity: 1; white-space: pre; opacity: 1;" transform="translate(409.45,0)">May</text></g><g class="xtick"><text text-anchor="middle" x="0" y="637" style="font-family: 'Open Sans', verdana, arial, sans-serif; font-size: 16px; fill: rgb(42, 63, 95); fill-opacity: 1; white-space: pre; opacity: 1;" transform="translate(491.82,0)">Jun</text></g><g class="xtick"><text text-anchor="middle" x="0" y="637" style="font-family: 'Open Sans', verdana, arial, sans-serif; font-size: 16px; fill: rgb(42, 63, 95); fill-opacity: 1; white-space: pre; opacity: 1;" transform="translate(574.1800000000001,0)">Jul</text></g><g class="xtick"><text text-anchor="middle" x="0" y="637" style="font-family: 'Open Sans', verdana, arial, sans-serif; font-size: 16px; fill: rgb(42, 63, 95); fill-opacity: 1; white-space: pre; opacity: 1;" transform="translate(656.55,0)">Aug</text></g><g class="xtick"><text text-anchor="middle" x="0" y="637" style="font-family: 'Open Sans', verdana, arial, sans-serif; font-size: 16px; fill: rgb(42, 63, 95); fill-opacity: 1; white-space: pre; opacity: 1;" transform="translate(738.91,0)">Sep</text></g><g class="xtick"><text text-anchor="middle" x="0" y="637" style="font-family: 'Open Sans', verdana, arial, sans-serif; font-size: 16px; fill: rgb(42, 63, 95); fill-opacity: 1; white-space: pre; opacity: 1;" transform="translate(821.27,0)">Oct</text></g><g class="xtick"><text text-anchor="middle" x="0" y="637" style="font-family: 'Open Sans', verdana, arial, sans-serif; font-size: 16px; fill: rgb(42, 63, 95); fill-opacity: 1; white-space: pre; opacity: 1;" transform="translate(903.64,0)">Nov</text></g><g class="xtick"><text text-anchor="middle" x="0" y="637" style="font-family: 'Open Sans', verdana, arial, sans-serif; font-size: 16px; fill: rgb(42, 63, 95); fill-opacity: 1; white-space: pre; opacity: 1;" transform="translate(986,0)">Dec</text></g></g><g class="yaxislayer-above"><g class="ytick"><text text-anchor="end" x="79" y="5.6" transform="translate(0,594)" style="font-family: 'Open Sans', verdana, arial, sans-serif; font-size: 16px; fill: rgb(42, 63, 95); fill-opacity: 1; white-space: pre; opacity: 1;">0</text></g><g class="ytick"><text text-anchor="end" x="79" y="5.6" style="font-family: 'Open Sans', verdana, arial, sans-serif; font-size: 16px; fill: rgb(42, 63, 95); fill-opacity: 1; white-space: pre; opacity: 1;" transform="translate(0,484.18)">0.05</text></g><g class="ytick"><text text-anchor="end" x="79" y="5.6" style="font-family: 'Open Sans', verdana, arial, sans-serif; font-size: 16px; fill: rgb(42, 63, 95); fill-opacity: 1; white-space: pre; opacity: 1;" transform="translate(0,374.37)">0.1</text></g><g class="ytick"><text text-anchor="end" x="79" y="5.6" style="font-family: 'Open Sans', verdana, arial, sans-serif; font-size: 16px; fill: rgb(42, 63, 95); fill-opacity: 1; white-space: pre; opacity: 1;" transform="translate(0,264.55)">0.15</text></g><g class="ytick"><text text-anchor="end" x="79" y="5.6" style="font-family: 'Open Sans', verdana, arial, sans-serif; font-size: 16px; fill: rgb(42, 63, 95); fill-opacity: 1; white-space: pre; opacity: 1;" transform="translate(0,154.73)">0.2</text></g></g><g class="overaxes-above"/></g></g><g class="polarlayer"/><g class="smithlayer"/><g class="ternarylayer"/><g class="geolayer"/><g class="funnelarealayer"/><g class="pielayer"/><g class="iciclelayer"/><g class="treemaplayer"/><g class="sunburstlayer"/><g class="glimages"/><defs id="topdefs-695826"><g class="clips"/><clipPath id="legend695826"><rect width="207" height="202" x="0" y="0"/></clipPath></defs><g class="layer-above"><g class="imagelayer"/><g class="shapelayer"/></g><g class="infolayer"><g class="legend" pointer-events="all" transform="translate(1031.3000000000002,100)"><rect class="bg" shape-rendering="crispEdges" width="207" height="202" x="0" y="0" style="stroke: rgb(68, 68, 68); stroke-opacity: 1; fill: rgb(255, 255, 255); fill-opacity: 1; stroke-width: 0px;"/><g class="scrollbox" transform="" clip-path="url(#legend695826)"><text class="legendtitletext" text-anchor="start" x="2" y="20.8" style="font-family: 'Open Sans', verdana, arial, sans-serif; font-size: 16px; fill: rgb(42, 63, 95); fill-opacity: 1; white-space: pre;">Legend</text><g class="groups"><g class="traces" transform="translate(0,35.3)" style="opacity: 1;"><text class="legendtext" text-anchor="start" x="40" y="4.680000000000001" style="font-family: 'Open Sans', verdana, arial, sans-serif; font-size: 12px; fill: rgb(42, 63, 95); fill-opacity: 1; white-space: pre;">2011-2022 75th Percentile</text><g class="layers" style="opacity: 1;"><g class="legendfill"/><g class="legendlines"><path class="js-line" d="M5,0h30" style="fill: none; stroke: rgb(0, 157, 157); stroke-opacity: 1; stroke-width: 10px;"/></g><g class="legendsymbols"><g class="legendpoints"/></g></g><rect class="legendtoggle" x="0" y="-9.5" width="201.46875" height="19" style="fill: rgb(0, 0, 0); fill-opacity: 0;"/></g><g class="traces" transform="translate(0,54.3)" style="opacity: 1;"><text class="legendtext" text-anchor="start" x="40" y="4.680000000000001" style="font-family: 'Open Sans', verdana, arial, sans-serif; font-size: 12px; fill: rgb(42, 63, 95); fill-opacity: 1; white-space: pre;">2011-2022 25th Percentile</text><g class="layers" style="opacity: 1;"><g class="legendfill"/><g class="legendlines"><path class="js-line" d="M5,0h30" style="fill: none; stroke: rgb(0, 157, 157); stroke-opacity: 1; stroke-width: 10px;"/></g><g class="legendsymbols"><g class="legendpoints"/></g></g><rect class="legendtoggle" x="0" y="-9.5" width="201.46875" height="19" style="fill: rgb(0, 0, 0); fill-opacity: 0;"/></g><g class="traces" transform="translate(0,73.3)" style="opacity: 1;"><text class="legendtext" text-anchor="start" x="40" y="4.680000000000001" style="font-family: 'Open Sans', verdana, arial, sans-serif; font-size: 12px; fill: rgb(42, 63, 95); fill-opacity: 1; white-space: pre;">2001-2010 75th Percentile</text><g class="layers" style="opacity: 1;"><g class="legendfill"/><g class="legendlines"><path class="js-line" d="M5,0h30" style="fill: none; stroke: rgb(0, 196, 196); stroke-opacity: 1; stroke-width: 10px;"/></g><g class="legendsymbols"><g class="legendpoints"/></g></g><rect class="legendtoggle" x="0" y="-9.5" width="201.46875" height="19" style="fill: rgb(0, 0, 0); fill-opacity: 0;"/></g><g class="traces" transform="translate(0,92.3)" style="opacity: 1;"><text class="legendtext" text-anchor="start" x="40" y="4.680000000000001" style="font-family: 'Open Sans', verdana, arial, sans-serif; font-size: 12px; fill: rgb(42, 63, 95); fill-opacity: 1; white-space: pre;">2001-2010 25th Percentile</text><g class="layers" style="opacity: 1;"><g class="legendfill"/><g class="legendlines"><path class="js-line" d="M5,0h30" style="fill: none; stroke: rgb(0, 196, 196); stroke-opacity: 1; stroke-width: 10px;"/></g><g class="legendsymbols"><g class="legendpoints"/></g></g><rect class="legendtoggle" x="0" y="-9.5" width="201.46875" height="19" style="fill: rgb(0, 0, 0); fill-opacity: 0;"/></g><g class="traces" transform="translate(0,111.3)" style="opacity: 1;"><text class="legendtext" text-anchor="start" x="40" y="4.680000000000001" style="font-family: 'Open Sans', verdana, arial, sans-serif; font-size: 12px; fill: rgb(42, 63, 95); fill-opacity: 1; white-space: pre;">1991-2000 75th Percentile</text><g class="layers" style="opacity: 1;"><g class="legendfill"/><g class="legendlines"><path class="js-line" d="M5,0h30" style="fill: none; stroke: rgb(0, 235, 235); stroke-opacity: 1; stroke-width: 10px;"/></g><g class="legendsymbols"><g class="legendpoints"/></g></g><rect class="legendtoggle" x="0" y="-9.5" width="201.46875" height="19" style="fill: rgb(0, 0, 0); fill-opacity: 0;"/></g><g class="traces" transform="translate(0,130.3)" style="opacity: 1;"><text class="legendtext" text-anchor="start" x="40" y="4.680000000000001" style="font-family: 'Open Sans', verdana, arial, sans-serif; font-size: 12px; fill: rgb(42, 63, 95); fill-opacity: 1; white-space: pre;">1991-2000 25th Percentile</text><g class="layers" style="opacity: 1;"><g class="legendfill"/><g class="legendlines"><path class="js-line" d="M5,0h30" style="fill: none; stroke: rgb(0, 235, 235); stroke-opacity: 1; stroke-width: 10px;"/></g><g class="legendsymbols"><g class="legendpoints"/></g></g><rect class="legendtoggle" x="0" y="-9.5" width="201.46875" height="19" style="fill: rgb(0, 0, 0); fill-opacity: 0;"/></g><g class="traces" transform="translate(0,149.3)" style="opacity: 1;"><text class="legendtext" text-anchor="start" x="40" y="4.680000000000001" style="font-family: 'Open Sans', verdana, arial, sans-serif; font-size: 12px; fill: rgb(42, 63, 95); fill-opacity: 1; white-space: pre;">1981-1990 75th Percentile</text><g class="layers" style="opacity: 1;"><g class="legendfill"/><g class="legendlines"><path class="js-line" d="M5,0h30" style="fill: none; stroke: rgb(177, 255, 255); stroke-opacity: 1; stroke-width: 10px;"/></g><g class="legendsymbols"><g class="legendpoints"/></g></g><rect class="legendtoggle" x="0" y="-9.5" width="201.46875" height="19" style="fill: rgb(0, 0, 0); fill-opacity: 0;"/></g><g class="traces" transform="translate(0,168.3)" style="opacity: 1;"><text class="legendtext" text-anchor="start" x="40" y="4.680000000000001" style="font-family: 'Open Sans', verdana, arial, sans-serif; font-size: 12px; fill: rgb(42, 63, 95); fill-opacity: 1; white-space: pre;">1981-1990 25th Percentile</text><g class="layers" style="opacity: 1;"><g class="legendfill"/><g class="legendlines"><path class="js-line" d="M5,0h30" style="fill: none; stroke: rgb(177, 255, 255); stroke-opacity: 1; stroke-width: 10px;"/></g><g class="legendsymbols"><g class="legendpoints"/></g></g><rect class="legendtoggle" x="0" y="-9.5" width="201.46875" height="19" style="fill: rgb(0, 0, 0); fill-opacity: 0;"/></g><g class="traces" transform="translate(0,187.3)" style="opacity: 1;"><text class="legendtext" text-anchor="start" x="40" y="4.680000000000001" style="font-family: 'Open Sans', verdana, arial, sans-serif; font-size: 12px; fill: rgb(42, 63, 95); fill-opacity: 1; white-space: pre;">Year 2023</text><g class="layers" style="opacity: 1;"><g class="legendfill"/><g class="legendlines"><path class="js-line" d="M5,0h30" style="fill: none; stroke: rgb(0, 118, 118); stroke-opacity: 1; stroke-width: 2px;"/></g><g class="legendsymbols"><g class="legendpoints"/></g></g><rect class="legendtoggle" x="0" y="-9.5" width="201.46875" height="19" style="fill: rgb(0, 0, 0); fill-opacity: 0;"/></g></g></g><rect class="scrollbar" rx="20" ry="3" width="0" height="0" x="0" y="0" style="fill: rgb(128, 139, 164); fill-opacity: 1;"/></g><g class="g-gtitle"/><g class="g-xtitle"><text class="xtitle" x="533" y="666.7" text-anchor="middle" style="font-family: 'Open Sans', verdana, arial, sans-serif; font-size: 16px; fill: rgb(42, 63, 95); opacity: 1; font-weight: normal; white-space: pre;">Month</text></g><g class="g-ytitle"><text class="ytitle" transform="rotate(-90,16.456249999999997,360)" x="16.456249999999997" y="360" text-anchor="middle" style="font-family: 'Open Sans', verdana, arial, sans-serif; font-size: 16px; fill: rgb(42, 63, 95); opacity: 1; font-weight: normal; white-space: pre;">Average Sea Ice Fraction (Extent)</text></g></g></svg>