<svg class="main-svg" xmlns="http://www.w3.org/2000/svg" xmlns:xlink="http://www.w3.org/1999/xlink" width="1250" height="700" style="" viewBox="0 0 1250 700"><rect x="0" y="0" width="1250" height="700" style="fill: rgb(255, 255, 255); fill-opacity: 1;"/><defs id="defs-a2a188"><g class="clips"><clipPath id="clipa2a188xyplot" class="plotclip"><rect width="906" height="520"/></clipPath><clipPath class="axesclip" id="clipa2a188x"><rect x="80" y="0" width="906" height="700"/></clipPath><clipPath class="axesclip" id="clipa2a188y"><rect x="0" y="100" width="1250" height="520"/></clipPath><clipPath class="axesclip" id="clipa2a188xy"><rect x="80" y="100" width="906" height="520"/></clipPath></g><g class="gradients"/><g class="patterns"/></defs><g class="bglayer"/><g class="layer-below"><g class="imagelayer"/><g class="shapelayer"/></g><g class="cartesianlayer"><g class="subplot xy"><g class="layer-subplot"><g class="shapelayer"/><g class="imagelayer"/></g><g class="minor-gridlayer"><g class="x"/><g class="y"/></g><g class="gridlayer"><g class="x"/><g class="y"/></g><g class="zerolinelayer"><path class="yzl zl crisp" transform="translate(0,594)" d="M80,0h906" style="stroke: rgb(255, 255, 255); stroke-opacity: 1; stroke-width: 2px;"/></g><path class="xlines-below"/><path class="ylines-below"/><g class="overlines-below"/><g class="xaxislayer-below"/><g class="yaxislayer-below"/><g class="overaxes-below"/><g class="plot" transform="translate(80,100)" clip-path="url(#clipa2a188xyplot)"><g class="scatterlayer mlayer"><g class="trace scatter trace2d3010" style="stroke-miterlimit: 2;"><g class="fills"><g><path class="js-fill" d="M0,492.63L164.73,491.91L247.09,487.53L329.45,474.2L411.82,377.36L494.18,301.18L576.55,383.84L658.91,335.17L741.27,340.5L823.64,468.21L906,491.36L906,492.31L823.64,487L741.27,404.16L658.91,419.25L576.55,407.55L494.18,378.35L411.82,418.06L329.45,479.87L247.09,492.6L164.73,493.41L0,493.07Z" style="fill: rgb(255, 157, 255); fill-opacity: 1; stroke-width: 0;"/></g></g><g class="errorbars"/><g class="lines"><path class="js-line" d="M0,493.07L164.73,493.41L247.09,492.6L329.45,479.87L411.82,418.06L494.18,378.35L576.55,407.55L658.91,419.25L741.27,404.16L823.64,487L906,492.31" style="vector-effect: non-scaling-stroke; fill: none; stroke: rgb(255, 157, 255); stroke-opacity: 1; stroke-width: 1px; opacity: 1;"/></g><g class="points"/><g class="text"/></g><g class="trace scatter trace51ba73" style="stroke-miterlimit: 2;"><g class="fills"/><g class="errorbars"/><g class="lines"><path class="js-line" d="M0,492.63L164.73,491.91L247.09,487.53L329.45,474.2L411.82,377.36L494.18,301.18L576.55,383.84L658.91,335.17L741.27,340.5L823.64,468.21L906,491.36" style="vector-effect: non-scaling-stroke; fill: none; stroke: rgb(255, 157, 255); stroke-opacity: 1; stroke-width: 1px; opacity: 1;"/></g><g class="points"/><g class="text"/></g><g class="trace scatter trace4d310c" style="stroke-miterlimit: 2;"><g class="fills"><g><path class="js-fill" d="M0,492.01L82.36,492.71L164.73,492.11L247.09,489.62L329.45,448.36L411.82,364.09L494.18,248.9L576.55,412.94L658.91,343.55L741.27,315.39L823.64,460.32L906,488.6L906,490.81L823.64,477.19L741.27,412.32L658.91,412.89L576.55,436.9L494.18,372.16L411.82,432.13L329.45,473.7L247.09,490.85L164.73,493.17L82.36,493.32L0,492.64Z" style="fill: rgb(255, 208, 177); fill-opacity: 1; stroke-width: 0;"/></g></g><g class="errorbars"/><g class="lines"><path class="js-line" d="M0,492.64L82.36,493.32L164.73,493.17L247.09,490.85L329.45,473.7L411.82,432.13L494.18,372.16L576.55,436.9L658.91,412.89L741.27,412.32L823.64,477.19L906,490.81" style="vector-effect: non-scaling-stroke; fill: none; stroke: rgb(255, 208, 177); stroke-opacity: 1; stroke-width: 1px; opacity: 1;"/></g><g class="points"/><g class="text"/></g><g class="trace scatter trace640fbb" style="stroke-miterlimit: 2;"><g class="fills"/><g class="errorbars"/><g class="lines"><path class="js-line" d="M0,492.01L82.36,492.71L164.73,492.11L247.09,489.62L329.45,448.36L411.82,364.09L494.18,248.9L576.55,412.94L658.91,343.55L741.27,315.39L823.64,460.32L906,488.6" style="vector-effect: non-scaling-stroke; fill: none; stroke: rgb(255, 208, 177); stroke-opacity: 1; stroke-width: 1px; opacity: 1;"/></g><g class="points"/><g class="text"/></g><g class="trace scatter trace5dcf78" style="stroke-miterlimit: 2;"><g class="fills"><g><path class="js-fill" d="M0,491.78L82.36,492.51L164.73,491.42L247.09,487.46L329.45,458.18L411.82,347.27L494.18,267.45L576.55,399.85L658.91,348.53L741.27,315.29L823.64,434.46L906,488.7L906,491.79L823.64,464.79L741.27,369.87L658.91,409.51L576.55,426.45L494.18,397.7L411.82,426.34L329.45,472.63L247.09,492.51L164.73,493.97L0,493.85Z" style="fill: rgb(255, 196, 255); fill-opacity: 1; stroke-width: 0;"/></g></g><g class="errorbars"/><g class="lines"><path class="js-line" d="M0,493.85L164.73,493.97L247.09,492.51L329.45,472.63L411.82,426.34L494.18,397.7L576.55,426.45L658.91,409.51L741.27,369.87L823.64,464.79L906,491.79" style="vector-effect: non-scaling-stroke; fill: none; stroke: rgb(255, 196, 255); stroke-opacity: 1; stroke-width: 1px; opacity: 1;"/></g><g class="points"/><g class="text"/></g><g class="trace scatter tracea4203b" style="stroke-miterlimit: 2;"><g class="fills"/><g class="errorbars"/><g class="lines"><path class="js-line" d="M0,491.78L82.36,492.51L164.73,491.42L247.09,487.46L329.45,458.18L411.82,347.27L494.18,267.45L576.55,399.85L658.91,348.53L741.27,315.29L823.64,434.46L906,488.7" style="vector-effect: non-scaling-stroke; fill: none; stroke: rgb(255, 196, 255); stroke-opacity: 1; stroke-width: 1px; opacity: 1;"/></g><g class="points"/><g class="text"/></g><g class="trace scatter trace1a4367" style="stroke-miterlimit: 2;"><g class="fills"><g><path class="js-fill" d="M0,493.13L164.73,493.24L247.09,487.13L329.45,417.36L411.82,178.82L494.18,274.16L576.55,394.09L658.91,325.88L741.27,305.03L823.64,427.29L906,487.14L906,492.69L823.64,455.61L741.27,383.23L658.91,373.92L576.55,434.16L494.18,334.63L411.82,318.72L329.45,450.01L247.09,492.22L164.73,493.92L0,493.88Z" style="fill: rgb(255, 184, 137); fill-opacity: 1; stroke-width: 0;"/></g></g><g class="errorbars"/><g class="lines"><path class="js-line" d="M0,493.88L164.73,493.92L247.09,492.22L329.45,450.01L411.82,318.72L494.18,334.63L576.55,434.16L658.91,373.92L741.27,383.23L823.64,455.61L906,492.69" style="vector-effect: non-scaling-stroke; fill: none; stroke: rgb(255, 184, 137); stroke-opacity: 1; stroke-width: 1px; opacity: 1;"/></g><g class="points"/><g class="text"/></g><g class="trace scatter traced6abec" style="stroke-miterlimit: 2;"><g class="fills"/><g class="errorbars"/><g class="lines"><path class="js-line" d="M0,493.13L164.73,493.24L247.09,487.13L329.45,417.36L411.82,178.82L494.18,274.16L576.55,394.09L658.91,325.88L741.27,305.03L823.64,427.29L906,487.14" style="vector-effect: non-scaling-stroke; fill: none; stroke: rgb(255, 184, 137); stroke-opacity: 1; stroke-width: 1px; opacity: 1;"/></g><g class="points"/><g class="text"/></g><g class="trace scatter trace1047d4" style="stroke-miterlimit: 2; opacity: 1;"><g class="fills"/><g class="errorbars"/><g class="lines"><path class="js-line" d="M0,493.94L164.73,493.58L247.09,492.59L329.45,467.4L411.82,268.03L494.18,26L576.55,348.82L658.91,411.78L741.27,311.49L823.64,441.57L906,487.26" style="vector-effect: non-scaling-stroke; fill: none; stroke: rgb(255, 149, 78); stroke-opacity: 1; stroke-width: 2px; opacity: 1;"/></g><g class="points"/><g class="text"/></g></g></g><g class="overplot"/><path class="xlines-above crisp" d="M0,0" style="fill: none;"/><path class="ylines-above crisp" d="M0,0" style="fill: none;"/><g class="overlines-above"/><g class="xaxislayer-above"><g class="xtick"><text text-anchor="middle" x="0" y="637" transform="translate(80,0)" style="font-family: 'Open Sans', verdana, arial, sans-serif; font-size: 16px; fill: rgb(42, 63, 95); fill-opacity: 1; white-space: pre; opacity: 1;">Jan</text></g><g class="xtick"><text text-anchor="middle" x="0" y="637" style="font-family: 'Open Sans', verdana, arial, sans-serif; font-size: 16px; fill: rgb(42, 63, 95); fill-opacity: 1; white-space: pre; opacity: 1;" transform="translate(162.36,0)">Feb</text></g><g class="xtick"><text text-anchor="middle" x="0" y="637" style="font-family: 'Open Sans', verdana, arial, sans-serif; font-size: 16px; fill: rgb(42, 63, 95); fill-opacity: 1; white-space: pre; opacity: 1;" transform="translate(244.73,0)">Mar</text></g><g class="xtick"><text text-anchor="middle" x="0" y="637" style="font-family: 'Open Sans', verdana, arial, sans-serif; font-size: 16px; fill: rgb(42, 63, 95); fill-opacity: 1; white-space: pre; opacity: 1;" transform="translate(327.09000000000003,0)">Apr</text></g><g class="xtick"><text text-anchor="middle" x="0" y="637" style="font-family: 'Open Sans', verdana, arial, sans-serif; font-size: 16px; fill: rgb(42, 63, 95); fill-opacity: 1; white-space: pre; opacity: 1;" transform="translate(409.45,0)">May</text></g><g class="xtick"><text text-anchor="middle" x="0" y="637" style="font-family: 'Open Sans', verdana, arial, sans-serif; font-size: 16px; fill: rgb(42, 63, 95); fill-opacity: 1; white-space: pre; opacity: 1;" transform="translate(491.82,0)">Jun</text></g><g class="xtick"><text text-anchor="middle" x="0" y="637" style="font-family: 'Open Sans', verdana, arial, sans-serif; font-size: 16px; fill: rgb(42, 63, 95); fill-opacity: 1; white-space: pre; opacity: 1;" transform="translate(574.1800000000001,0)">Jul</text></g><g class="xtick"><text text-anchor="middle" x="0" y="637" style="font-family: 'Open Sans', verdana, arial, sans-serif; font-size: 16px; fill: rgb(42, 63, 95); fill-opacity: 1; white-space: pre; opacity: 1;" transform="translate(656.55,0)">Aug</text></g><g class="xtick"><text text-anchor="middle" x="0" y="637" style="font-family: 'Open Sans', verdana, arial, sans-serif; font-size: 16px; fill: rgb(42, 63, 95); fill-opacity: 1; white-space: pre; opacity: 1;" transform="translate(738.91,0)">Sep</text></g><g class="xtick"><text text-anchor="middle" x="0" y="637" style="font-family: 'Open Sans', verdana, arial, sans-serif; font-size: 16px; fill: rgb(42, 63, 95); fill-opacity: 1; white-space: pre; opacity: 1;" transform="translate(821.27,0)">Oct</text></g><g class="xtick"><text text-anchor="middle" x="0" y="637" style="font-family: 'Open Sans', verdana, arial, sans-serif; font-size: 16px; fill: rgb(42, 63, 95); fill-opacity: 1; white-space: pre; opacity: 1;" transform="translate(903.64,0)">Nov</text></g><g class="xtick"><text text-anchor="middle" x="0" y="637" style="font-family: 'Open Sans', verdana, arial, sans-serif; font-size: 16px; fill: rgb(42, 63, 95); fill-opacity: 1; white-space: pre; opacity: 1;" transform="translate(986,0)">Dec</text></g></g><g class="yaxislayer-above"><g class="ytick"><text text-anchor="end" x="79" y="5.6" transform="translate(0,594)" style="font-family: 'Open Sans', verdana, arial, sans-serif; font-size: 16px; fill: rgb(42, 63, 95); fill-opacity: 1; white-space: pre; opacity: 1;">0</text></g><g class="ytick"><text text-anchor="end" x="79" y="5.6" style="font-family: 'Open Sans', verdana, arial, sans-serif; font-size: 16px; fill: rgb(42, 63, 95); fill-opacity: 1; white-space: pre; opacity: 1;" transform="translate(0,498.86)">1</text></g><g class="ytick"><text text-anchor="end" x="79" y="5.6" style="font-family: 'Open Sans', verdana, arial, sans-serif; font-size: 16px; fill: rgb(42, 63, 95); fill-opacity: 1; white-space: pre; opacity: 1;" transform="translate(0,403.71)">2</text></g><g class="ytick"><text text-anchor="end" x="79" y="5.6" style="font-family: 'Open Sans', verdana, arial, sans-serif; font-size: 16px; fill: rgb(42, 63, 95); fill-opacity: 1; white-space: pre; opacity: 1;" transform="translate(0,308.56)">3</text></g><g class="ytick"><text text-anchor="end" x="79" y="5.6" style="font-family: 'Open Sans', verdana, arial, sans-serif; font-size: 16px; fill: rgb(42, 63, 95); fill-opacity: 1; white-space: pre; opacity: 1;" transform="translate(0,213.42000000000002)">4</text></g><g class="ytick"><text text-anchor="end" x="79" y="5.6" style="font-family: 'Open Sans', verdana, arial, sans-serif; font-size: 16px; fill: rgb(42, 63, 95); fill-opacity: 1; white-space: pre; opacity: 1;" transform="translate(0,118.27)">5</text></g></g><g class="overaxes-above"/></g></g><g class="polarlayer"/><g class="smithlayer"/><g class="ternarylayer"/><g class="geolayer"/><g class="funnelarealayer"/><g class="pielayer"/><g class="iciclelayer"/><g class="treemaplayer"/><g class="sunburstlayer"/><g class="glimages"/><defs id="topdefs-a2a188"><g class="clips"/><clipPath id="legenda2a188"><rect width="207" height="202" x="0" y="0"/></clipPath></defs><g class="layer-above"><g class="imagelayer"/><g class="shapelayer"/></g><g class="infolayer"><g class="legend" pointer-events="all" transform="translate(1031.3000000000002,100)"><rect class="bg" shape-rendering="crispEdges" style="stroke: rgb(68, 68, 68); stroke-opacity: 1; fill: rgb(255, 255, 255); fill-opacity: 1; stroke-width: 0px;" width="207" height="202" x="0" y="0"/><g class="scrollbox" transform="" clip-path="url(#legenda2a188)"><text class="legendtitletext" text-anchor="start" x="2" y="20.8" style="font-family: 'Open Sans', verdana, arial, sans-serif; font-size: 16px; fill: rgb(42, 63, 95); fill-opacity: 1; white-space: pre;">Legend</text><g class="groups"><g class="traces" transform="translate(0,35.3)" style="opacity: 1;"><text class="legendtext" text-anchor="start" x="40" y="4.680000000000001" style="font-family: 'Open Sans', verdana, arial, sans-serif; font-size: 12px; fill: rgb(42, 63, 95); fill-opacity: 1; white-space: pre;">Year 2023 Water Temp</text><g class="layers" style="opacity: 1;"><g class="legendfill"/><g class="legendlines"><path class="js-line" d="M5,0h30" style="fill: none; stroke: rgb(255, 149, 78); stroke-opacity: 1; stroke-width: 2px;"/></g><g class="legendsymbols"><g class="legendpoints"/></g></g><rect class="legendtoggle" x="0" y="-9.5" width="201.46875" height="19" style="fill: rgb(0, 0, 0); fill-opacity: 0;"/></g><g class="traces" transform="translate(0,54.3)" style="opacity: 1;"><text class="legendtext" text-anchor="start" x="40" y="4.680000000000001" style="font-family: 'Open Sans', verdana, arial, sans-serif; font-size: 12px; fill: rgb(42, 63, 95); fill-opacity: 1; white-space: pre;">2011-2022 75th Percentile</text><g class="layers"><g class="legendfill"><path class="js-fill" d="M5,-2h30v6h-30z" style="stroke-width: 0; fill: rgb(255, 184, 137); fill-opacity: 1;"/></g><g class="legendlines"><path class="js-line" d="M5,-2h30" style="fill: none; stroke: rgb(255, 184, 137); stroke-opacity: 1; stroke-width: 1px;"/></g><g class="legendsymbols"><g class="legendpoints"/></g></g><rect class="legendtoggle" x="0" y="-9.5" width="201.46875" height="19" style="fill: rgb(0, 0, 0); fill-opacity: 0;"/></g><g class="traces" transform="translate(0,73.3)" style="opacity: 1;"><text class="legendtext" text-anchor="start" x="40" y="4.680000000000001" style="font-family: 'Open Sans', verdana, arial, sans-serif; font-size: 12px; fill: rgb(42, 63, 95); fill-opacity: 1; white-space: pre;">2011-2022 25th Percentile</text><g class="layers"><g class="legendfill"/><g class="legendlines"><path class="js-line" d="M5,0h30" style="fill: none; stroke: rgb(255, 184, 137); stroke-opacity: 1; stroke-width: 1px;"/></g><g class="legendsymbols"><g class="legendpoints"/></g></g><rect class="legendtoggle" x="0" y="-9.5" width="201.46875" height="19" style="fill: rgb(0, 0, 0); fill-opacity: 0;"/></g><g class="traces" transform="translate(0,92.3)" style="opacity: 1;"><text class="legendtext" text-anchor="start" x="40" y="4.680000000000001" style="font-family: 'Open Sans', verdana, arial, sans-serif; font-size: 12px; fill: rgb(42, 63, 95); fill-opacity: 1; white-space: pre;">2001-2010 75th Percentile</text><g class="layers"><g class="legendfill"><path class="js-fill" d="M5,-2h30v6h-30z" style="stroke-width: 0; fill: rgb(255, 196, 255); fill-opacity: 1;"/></g><g class="legendlines"><path class="js-line" d="M5,-2h30" style="fill: none; stroke: rgb(255, 196, 255); stroke-opacity: 1; stroke-width: 1px;"/></g><g class="legendsymbols"><g class="legendpoints"/></g></g><rect class="legendtoggle" x="0" y="-9.5" width="201.46875" height="19" style="fill: rgb(0, 0, 0); fill-opacity: 0;"/></g><g class="traces" transform="translate(0,111.3)" style="opacity: 1;"><text class="legendtext" text-anchor="start" x="40" y="4.680000000000001" style="font-family: 'Open Sans', verdana, arial, sans-serif; font-size: 12px; fill: rgb(42, 63, 95); fill-opacity: 1; white-space: pre;">2001-2010 25th Percentile</text><g class="layers"><g class="legendfill"/><g class="legendlines"><path class="js-line" d="M5,0h30" style="fill: none; stroke: rgb(255, 196, 255); stroke-opacity: 1; stroke-width: 1px;"/></g><g class="legendsymbols"><g class="legendpoints"/></g></g><rect class="legendtoggle" x="0" y="-9.5" width="201.46875" height="19" style="fill: rgb(0, 0, 0); fill-opacity: 0;"/></g><g class="traces" transform="translate(0,130.3)" style="opacity: 1;"><text class="legendtext" text-anchor="start" x="40" y="4.680000000000001" style="font-family: 'Open Sans', verdana, arial, sans-serif; font-size: 12px; fill: rgb(42, 63, 95); fill-opacity: 1; white-space: pre;">1991-2000 75th Percentile</text><g class="layers"><g class="legendfill"><path class="js-fill" d="M5,-2h30v6h-30z" style="stroke-width: 0; fill: rgb(255, 208, 177); fill-opacity: 1;"/></g><g class="legendlines"><path class="js-line" d="M5,-2h30" style="fill: none; stroke: rgb(255, 208, 177); stroke-opacity: 1; stroke-width: 1px;"/></g><g class="legendsymbols"><g class="legendpoints"/></g></g><rect class="legendtoggle" x="0" y="-9.5" width="201.46875" height="19" style="fill: rgb(0, 0, 0); fill-opacity: 0;"/></g><g class="traces" transform="translate(0,149.3)" style="opacity: 1;"><text class="legendtext" text-anchor="start" x="40" y="4.680000000000001" style="font-family: 'Open Sans', verdana, arial, sans-serif; font-size: 12px; fill: rgb(42, 63, 95); fill-opacity: 1; white-space: pre;">1991-2000 25th Percentile</text><g class="layers"><g class="legendfill"/><g class="legendlines"><path class="js-line" d="M5,0h30" style="fill: none; stroke: rgb(255, 208, 177); stroke-opacity: 1; stroke-width: 1px;"/></g><g class="legendsymbols"><g class="legendpoints"/></g></g><rect class="legendtoggle" x="0" y="-9.5" width="201.46875" height="19" style="fill: rgb(0, 0, 0); fill-opacity: 0;"/></g><g class="traces" transform="translate(0,168.3)" style="opacity: 1;"><text class="legendtext" text-anchor="start" x="40" y="4.680000000000001" style="font-family: 'Open Sans', verdana, arial, sans-serif; font-size: 12px; fill: rgb(42, 63, 95); fill-opacity: 1; white-space: pre;">1981-1990 75th Percentile</text><g class="layers"><g class="legendfill"><path class="js-fill" d="M5,-2h30v6h-30z" style="stroke-width: 0; fill: rgb(255, 157, 255); fill-opacity: 1;"/></g><g class="legendlines"><path class="js-line" d="M5,-2h30" style="fill: none; stroke: rgb(255, 157, 255); stroke-opacity: 1; stroke-width: 1px;"/></g><g class="legendsymbols"><g class="legendpoints"/></g></g><rect class="legendtoggle" x="0" y="-9.5" width="201.46875" height="19" style="fill: rgb(0, 0, 0); fill-opacity: 0;"/></g><g class="traces" transform="translate(0,187.3)" style="opacity: 1;"><text class="legendtext" text-anchor="start" x="40" y="4.680000000000001" style="font-family: 'Open Sans', verdana, arial, sans-serif; font-size: 12px; fill: rgb(42, 63, 95); fill-opacity: 1; white-space: pre;">1981-1990 25th Percentile</text><g class="layers"><g class="legendfill"/><g class="legendlines"><path class="js-line" d="M5,0h30" style="fill: none; stroke: rgb(255, 157, 255); stroke-opacity: 1; stroke-width: 1px;"/></g><g class="legendsymbols"><g class="legendpoints"/></g></g><rect class="legendtoggle" x="0" y="-9.5" width="201.46875" height="19" style="fill: rgb(0, 0, 0); fill-opacity: 0;"/></g></g></g><rect class="scrollbar" rx="20" ry="3" width="0" height="0" style="fill: rgb(128, 139, 164); fill-opacity: 1;" x="0" y="0"/></g><g class="g-gtitle"/><g class="g-xtitle"><text class="xtitle" x="533" y="666.7" text-anchor="middle" style="font-family: 'Open Sans', verdana, arial, sans-serif; font-size: 16px; fill: rgb(42, 63, 95); opacity: 1; font-weight: normal; white-space: pre;">Month</text></g><g class="g-ytitle"><text class="ytitle" transform="rotate(-90,42.628125,360)" x="42.628125" y="360" text-anchor="middle" style="font-family: 'Open Sans', verdana, arial, sans-serif; font-size: 16px; fill: rgb(42, 63, 95); opacity: 1; font-weight: normal; white-space: pre;">Average Water Temperature (°C)</text></g></g></svg>