<svg class="main-svg" xmlns="http://www.w3.org/2000/svg" xmlns:xlink="http://www.w3.org/1999/xlink" width="1250" height="700" style="" viewBox="0 0 1250 700"><rect x="0" y="0" width="1250" height="700" style="fill: rgb(0, 0, 0); fill-opacity: 0;"/><defs id="defs-23f9d5"><g class="clips"><clipPath id="clip23f9d5xyplot" class="plotclip"><rect width="1090" height="520"/></clipPath><clipPath class="axesclip" id="clip23f9d5x"><rect x="80" y="0" width="1090" height="700"/></clipPath><clipPath class="axesclip" id="clip23f9d5y"><rect x="0" y="100" width="1250" height="520"/></clipPath><clipPath class="axesclip" id="clip23f9d5xy"><rect x="80" y="100" width="1090" height="520"/></clipPath></g><g class="gradients"/><g class="patterns"/></defs><g class="bglayer"><rect class="bg" x="80" y="100" width="1090" height="520" style="fill: rgb(0, 0, 0); fill-opacity: 0; stroke-width: 0;"/></g><g class="layer-below"><g class="imagelayer"/><g class="shapelayer"/></g><g class="cartesianlayer"><g class="subplot xy"><g class="layer-subplot"><g class="shapelayer"/><g class="imagelayer"/></g><g class="minor-gridlayer"><g class="x"/><g class="y"/></g><g class="gridlayer"><g class="x"/><g class="y"/></g><g class="zerolinelayer"/><path class="xlines-below"/><path class="ylines-below"/><g class="overlines-below"/><g class="xaxislayer-below"/><g class="yaxislayer-below"/><g class="overaxes-below"/><g class="plot" transform="translate(80,100)" clip-path="url(#clip23f9d5xyplot)"><g class="scatterlayer mlayer"><g class="trace scatter trace2445eb" style="stroke-miterlimit: 2;"><g class="fills"><g><path class="js-fill" d="M0,492.63L198.18,491.91L297.27,487.53L396.36,474.2L495.45,377.36L594.55,301.18L693.64,383.84L792.73,335.17L891.82,340.5L990.91,468.21L1090,491.36L1090,492.31L990.91,487L891.82,404.16L792.73,419.25L693.64,407.55L594.55,378.35L495.45,418.06L396.36,479.87L297.27,492.6L198.18,493.41L0,493.07Z" style="fill: rgb(255, 157, 255); fill-opacity: 1; stroke-width: 0;"/></g></g><g class="errorbars"/><g class="lines"><path class="js-line" d="M0,493.07L198.18,493.41L297.27,492.6L396.36,479.87L495.45,418.06L594.55,378.35L693.64,407.55L792.73,419.25L891.82,404.16L990.91,487L1090,492.31" style="vector-effect: non-scaling-stroke; fill: none; stroke: rgb(255, 157, 255); stroke-opacity: 1; stroke-width: 1px; opacity: 1;"/></g><g class="points"/><g class="text"/></g><g class="trace scatter tracedfc191" style="stroke-miterlimit: 2;"><g class="fills"/><g class="errorbars"/><g class="lines"><path class="js-line" d="M0,492.63L198.18,491.91L297.27,487.53L396.36,474.2L495.45,377.36L594.55,301.18L693.64,383.84L792.73,335.17L891.82,340.5L990.91,468.21L1090,491.36" style="vector-effect: non-scaling-stroke; fill: none; stroke: rgb(255, 157, 255); stroke-opacity: 1; stroke-width: 1px; opacity: 1;"/></g><g class="points"/><g class="text"/></g><g class="trace scatter tracee6e3ae" style="stroke-miterlimit: 2;"><g class="fills"><g><path class="js-fill" d="M0,492.01L99.09,492.71L198.18,492.11L297.27,489.62L396.36,448.36L495.45,364.09L594.55,248.9L693.64,412.94L792.73,343.55L891.82,315.39L990.91,460.32L1090,488.6L1090,490.81L990.91,477.19L891.82,412.32L792.73,412.89L693.64,436.9L594.55,372.16L495.45,432.13L396.36,473.7L297.27,490.85L198.18,493.17L99.09,493.32L0,492.64Z" style="fill: rgb(255, 208, 177); fill-opacity: 1; stroke-width: 0;"/></g></g><g class="errorbars"/><g class="lines"><path class="js-line" d="M0,492.64L99.09,493.32L198.18,493.17L297.27,490.85L396.36,473.7L495.45,432.13L594.55,372.16L693.64,436.9L792.73,412.89L891.82,412.32L990.91,477.19L1090,490.81" style="vector-effect: non-scaling-stroke; fill: none; stroke: rgb(255, 208, 177); stroke-opacity: 1; stroke-width: 1px; opacity: 1;"/></g><g class="points"/><g class="text"/></g><g class="trace scatter trace48522a" style="stroke-miterlimit: 2;"><g class="fills"/><g class="errorbars"/><g class="lines"><path class="js-line" d="M0,492.01L99.09,492.71L198.18,492.11L297.27,489.62L396.36,448.36L495.45,364.09L594.55,248.9L693.64,412.94L792.73,343.55L891.82,315.39L990.91,460.32L1090,488.6" style="vector-effect: non-scaling-stroke; fill: none; stroke: rgb(255, 208, 177); stroke-opacity: 1; stroke-width: 1px; opacity: 1;"/></g><g class="points"/><g class="text"/></g><g class="trace scatter tracea8ff6c" style="stroke-miterlimit: 2;"><g class="fills"><g><path class="js-fill" d="M0,491.78L99.09,492.51L198.18,491.42L297.27,487.46L396.36,458.18L495.45,347.27L594.55,267.45L693.64,399.85L792.73,348.53L891.82,315.29L990.91,434.46L1090,488.7L1090,491.79L990.91,464.79L891.82,369.87L792.73,409.51L693.64,426.45L594.55,397.7L495.45,426.34L396.36,472.63L297.27,492.51L198.18,493.97L0,493.85Z" style="fill: rgb(255, 196, 255); fill-opacity: 1; stroke-width: 0;"/></g></g><g class="errorbars"/><g class="lines"><path class="js-line" d="M0,493.85L198.18,493.97L297.27,492.51L396.36,472.63L495.45,426.34L594.55,397.7L693.64,426.45L792.73,409.51L891.82,369.87L990.91,464.79L1090,491.79" style="vector-effect: non-scaling-stroke; fill: none; stroke: rgb(255, 196, 255); stroke-opacity: 1; stroke-width: 1px; opacity: 1;"/></g><g class="points"/><g class="text"/></g><g class="trace scatter trace3e0ba4" style="stroke-miterlimit: 2;"><g class="fills"/><g class="errorbars"/><g class="lines"><path class="js-line" d="M0,491.78L99.09,492.51L198.18,491.42L297.27,487.46L396.36,458.18L495.45,347.27L594.55,267.45L693.64,399.85L792.73,348.53L891.82,315.29L990.91,434.46L1090,488.7" style="vector-effect: non-scaling-stroke; fill: none; stroke: rgb(255, 196, 255); stroke-opacity: 1; stroke-width: 1px; opacity: 1;"/></g><g class="points"/><g class="text"/></g><g class="trace scatter tracec89d0c" style="stroke-miterlimit: 2;"><g class="fills"><g><path class="js-fill" d="M0,493.13L198.18,493.24L297.27,487.13L396.36,417.36L495.45,178.82L594.55,274.16L693.64,394.09L792.73,325.88L891.82,305.03L990.91,427.29L1090,487.14L1090,492.69L990.91,455.61L891.82,383.23L792.73,373.92L693.64,434.16L594.55,334.63L495.45,318.72L396.36,450.01L297.27,492.22L198.18,493.92L0,493.88Z" style="fill: rgb(255, 184, 137); fill-opacity: 1; stroke-width: 0;"/></g></g><g class="errorbars"/><g class="lines"><path class="js-line" d="M0,493.88L198.18,493.92L297.27,492.22L396.36,450.01L495.45,318.72L594.55,334.63L693.64,434.16L792.73,373.92L891.82,383.23L990.91,455.61L1090,492.69" style="vector-effect: non-scaling-stroke; fill: none; stroke: rgb(255, 184, 137); stroke-opacity: 1; stroke-width: 1px; opacity: 1;"/></g><g class="points"/><g class="text"/></g><g class="trace scatter tracea5ea76" style="stroke-miterlimit: 2;"><g class="fills"/><g class="errorbars"/><g class="lines"><path class="js-line" d="M0,493.13L198.18,493.24L297.27,487.13L396.36,417.36L495.45,178.82L594.55,274.16L693.64,394.09L792.73,325.88L891.82,305.03L990.91,427.29L1090,487.14" style="vector-effect: non-scaling-stroke; fill: none; stroke: rgb(255, 184, 137); stroke-opacity: 1; stroke-width: 1px; opacity: 1;"/></g><g class="points"/><g class="text"/></g><g class="trace scatter trace4af3ab" style="stroke-miterlimit: 2; opacity: 1;"><g class="fills"/><g class="errorbars"/><g class="lines"><path class="js-line" d="M0,493.94L198.18,493.58L297.27,492.59L396.36,467.4L495.45,268.03L594.55,26L693.64,348.82L792.73,411.78L891.82,311.49L990.91,441.57L1090,487.26" style="vector-effect: non-scaling-stroke; fill: none; stroke: rgb(255, 149, 78); stroke-opacity: 1; stroke-width: 2px; opacity: 1;"/></g><g class="points"/><g class="text"/></g></g></g><g class="overplot"/><path class="xlines-above crisp" d="M0,0" style="fill: none;"/><path class="ylines-above crisp" d="M0,0" style="fill: none;"/><g class="overlines-above"/><g class="xaxislayer-above"/><g class="yaxislayer-above"/><g class="overaxes-above"/></g></g><g class="polarlayer"/><g class="smithlayer"/><g class="ternarylayer"/><g class="geolayer"/><g class="funnelarealayer"/><g class="pielayer"/><g class="iciclelayer"/><g class="treemaplayer"/><g class="sunburstlayer"/><g class="glimages"/><defs id="topdefs-23f9d5"><g class="clips"/></defs><g class="layer-above"><g class="imagelayer"/><g class="shapelayer"/></g><g class="infolayer"><g class="g-gtitle"/></g></svg>